<svg id="visual" viewBox="0 0 900 600" width="900" height="600" xmlns="http://www.w3.org/2000/svg" xmlns:xlink="http://www.w3.org/1999/xlink" version="1.1"><path d="M755 600L647 545L719 491L782 436L638 382L773 327L683 273L665 218L584 164L701 109L620 55L611 0L900 0L900 55L900 109L900 164L900 218L900 273L900 327L900 382L900 436L900 491L900 545L900 600Z" fill="#038373"></path><path d="M656 600L566 545L629 491L665 436L566 382L611 327L602 273L530 218L512 164L566 109L512 55L512 0L612 0L621 55L702 109L585 164L666 218L684 273L774 327L639 382L783 436L720 491L648 545L756 600Z" fill="#00917b"></path><path d="M593 600L476 545L512 491L530 436L521 382L548 327L476 273L413 218L449 164L431 109L395 55L422 0L513 0L513 55L567 109L513 164L531 218L603 273L612 327L567 382L666 436L630 491L567 545L657 600Z" fill="#00a081"></path><path d="M287 600L296 545L287 491L233 436L305 382L179 327L152 273L188 218L224 164L233 109L134 55L224 0L423 0L396 55L432 109L450 164L414 218L477 273L549 327L522 382L531 436L513 491L477 545L594 600Z" fill="#00ae87"></path><path d="M125 600L98 545L89 491L89 436L116 382L71 327L62 273L125 218L98 164L62 109L44 55L107 0L225 0L135 55L234 109L225 164L189 218L153 273L180 327L306 382L234 436L288 491L297 545L288 600Z" fill="#00bd8b"></path><path d="M0 600L0 545L0 491L0 436L0 382L0 327L0 273L0 218L0 164L0 109L0 55L0 0L108 0L45 55L63 109L99 164L126 218L63 273L72 327L117 382L90 436L90 491L99 545L126 600Z" fill="#00cc8e"></path></svg>