<svg id="visual" viewBox="0 0 900 600" width="900" height="600" xmlns="http://www.w3.org/2000/svg" xmlns:xlink="http://www.w3.org/1999/xlink" version="1.1"><rect x="0" y="0" width="900" height="600" fill="#00564c"></rect><path d="M0 445L18.8 441.3C37.7 437.7 75.3 430.3 112.8 416.3C150.3 402.3 187.7 381.7 225.2 371.5C262.7 361.3 300.3 361.7 337.8 373.2C375.3 384.7 412.7 407.3 450.2 418.5C487.7 429.7 525.3 429.3 562.8 418.2C600.3 407 637.7 385 675.2 368.8C712.7 352.7 750.3 342.3 787.8 347.7C825.3 353 862.7 374 881.3 384.5L900 395L900 601L881.3 601C862.7 601 825.3 601 787.8 601C750.3 601 712.7 601 675.2 601C637.7 601 600.3 601 562.8 601C525.3 601 487.7 601 450.2 601C412.7 601 375.3 601 337.8 601C300.3 601 262.7 601 225.2 601C187.7 601 150.3 601 112.8 601C75.3 601 37.7 601 18.8 601L0 601Z" fill="#00CC8E" stroke-linecap="round" stroke-linejoin="miter"></path></svg>